<?xml version="1.0" encoding="UTF-8" standalone="no"?> <!-- Created with Vectornator for iOS (http://vectornator.io/) --><!DOCTYPE svg PUBLIC "-//W3C//DTD SVG 1.1//EN" "http://www.w3.org/Graphics/SVG/1.1/DTD/svg11.dtd">
<svg height="100%" style="fill-rule:nonzero;clip-rule:evenodd;stroke-linecap:round;stroke-linejoin:round;" xmlns:xlink="http://www.w3.org/1999/xlink" xmlns="http://www.w3.org/2000/svg" xml:space="preserve" width="100%" xmlns:vectornator="http://vectornator.io" version="1.1" viewBox="0 0 400 400">
<defs/>
<g id="bg" vectornator:layerName="bg">
<path stroke="#ff4444" stroke-linejoin="round" stroke-opacity="1" stroke-width="18.5841" d="M114.074+161.131L84.6914+153.125L63.1817+131.254L55.3086+101.377L63.1817+71.5009L84.6914+49.6298L114.074+41.6244L143.457+49.6298L164.966+71.5009L172.84+101.377L164.966+131.254L143.457+153.125L114.074+161.131Z" fill="#ff8888" stroke-linecap="round" fill-opacity="1" opacity="1" vectornator:blendMode="Multiply"/>
</g>
<g id="all" vectornator:layerName="all">
<path d="M76.2963+123.457L75.2972+117.712L73.5569+123.277L73.3161+117.452L70.8643+122.742L71.386+116.935L68.2647+121.859L69.5399+116.17L65.8025+120.645L67.8094+115.171L63.5198+119.12L66.2241+113.954L61.4558+117.31L64.8111+112.541L59.6457+115.246L63.5947+110.956L58.1205+112.963L62.5956+109.226L56.9062+110.501L61.8309+107.379L56.0238+107.901L61.3138+105.449L55.4882+105.209L61.0529+103.468L55.3086+102.469L61.0529+101.47L55.4882+99.7297L61.3138+99.4889L56.0238+97.0371L61.8309+97.5588L56.9062+94.4375L62.5956+95.7127L58.1205+91.9753L63.5947+93.9822L59.6457+89.6927L64.8111+92.3969L61.4558+87.6286L66.2241+90.984L63.5198+85.8185L67.8094+89.7676L65.8025+84.2933L69.5399+88.7685L68.2647+83.0791L71.386+88.0038L70.8643+82.1966L73.3161+87.4866L73.5569+81.661L75.2972+87.2258L76.2963+81.4815L77.2954+87.2258L79.0357+81.661L79.2765+87.4866L81.7283+82.1966L81.2066+88.0038L84.3279+83.0791L83.0527+88.7685L86.7901+84.2933L84.7832+89.7676L89.0728+85.8185L86.3685+90.984L91.1368+87.6286L87.7815+92.3969L92.9469+89.6927L88.9979+93.9822L94.4721+91.9753L89.997+95.7127L95.6864+94.4375L90.7617+97.5588L96.5688+97.0371L91.2788+99.4889L97.1044+99.7297L91.5397+101.47L97.284+102.469L91.5397+103.468L97.1044+105.209L91.2788+105.449L96.5688+107.901L90.7617+107.379L95.6864+110.501L89.997+109.226L94.4721+112.963L88.9979+110.956L92.9469+115.246L87.7815+112.541L91.1368+117.31L86.3685+113.954L89.0728+119.12L84.7832+115.171L86.7901+120.645L83.0527+116.17L84.3279+121.859L81.2066+116.935L81.7283+122.742L79.2765+117.452L79.0357+123.277L77.2954+117.712L76.2963+123.457Z" opacity="1" fill="#c31d00"/>
<path d="M121.899+170.861C154.202+170.532+180.163+144.975+179.846+113.785C179.591+88.6901+162.29+67.8567+138.764+60.7407C141.62+66.9876+143.259+73.8636+143.333+81.1409C143.621+109.565+120.227+132.844+91.0956+133.141C81.2155+133.242+72.0537+130.503+64.1018+125.971C69.6712+151.835+93.5002+171.151+121.899+170.861Z" opacity="1" fill="#c2bcb8"/>
<path d="M161.235+121.273C161.235+121.273+160.946+113.284+156.255+108.593C151.564+103.901+142.469+100.247+142.469+100.247C142.469+100.247+151.206+101.471+155.897+96.7793C160.588+92.0879+161.235+81.4815+161.235+81.4815C161.235+81.4815+163.404+92.1651+168.096+96.8564C172.787+101.548+180+100.247+180+100.247C180+100.247+171.196+104.104+166.505+108.795C161.814+113.487+161.235+121.273+161.235+121.273Z" opacity="1" fill="#f2c603"/>
<path d="M121.975+115.802C121.975+115.802+119.843+97.6487+110.028+87.8339C100.213+78.0191+82.7161+76.5432+82.7161+76.5432C82.7161+76.5432+100.213+77.963+110.028+68.1482C119.843+58.3333+121.975+37.284+121.975+37.284C121.975+37.284+124.41+57.3457+134.225+67.1605C144.04+76.9753+161.235+76.5432+161.235+76.5432C161.235+76.5432+144.287+78.0191+134.472+87.8339C124.657+97.6487+121.975+115.802+121.975+115.802Z" opacity="1" fill="#f2c603"/>
</g>
</svg>
